<svg width="1440" height="1024" viewBox="0 0 1440 1024" xmlns="http://www.w3.org/2000/svg" xmlns:xlink="http://www.w3.org/1999/xlink">
    <path id="path1" fill="#000000" stroke="none" d="M 0 0 L 1440 0 L 1440 1024 L 0 1024 Z"/>
    <path id="path2" fill="#ffffff" fill-rule="evenodd" stroke="none" d="M 682.643005 358.11499 C 682.888977 354.601013 683.947021 321.812988 685.817993 259.75 C 686.286011 244.216003 675.526001 230.591003 660.30603 227.447021 C 659.286011 227.237 658.775024 227.130981 658.775024 227.130981 C 640.406006 225.846985 624.05603 238.702026 620.971008 256.855957 L 605.219971 349.531982"/>
    <path id="path3" fill="#f56843" stroke="none" d="M 658.953003 227.843994 L 660.434021 228.150024 C 675.296997 231.219971 685.804993 244.525024 685.348022 259.695007 C 683.478027 321.716003 682.419006 354.532959 682.174011 358.031006 C 682.14502 358.44397 682.45697 358.802002 682.869995 358.830994 C 683.28302 358.859985 683.642029 358.549011 683.671021 358.13501 C 683.91803 354.60498 684.974976 321.846008 686.846985 259.73999 C 687.325989 243.84198 676.314026 229.89801 660.737 226.68103 L 659.205994 226.36499 L 659.106995 226.351013 C 640.353027 225.039001 623.659973 238.164001 620.510986 256.698975 L 604.76001 349.374023 C 604.690979 349.782959 604.966003 350.170044 605.374023 350.239014 C 605.78302 350.30896 606.169983 350.033997 606.239014 349.625977 L 621.989014 256.950012 C 625.007019 239.192017 640.987976 226.613037 658.953003 227.843994 Z"/>
    <path id="path4" fill="#ffffff" fill-rule="evenodd" stroke="none" d="M 694.857971 349.958008 L 702.905029 287.39801 C 703.679993 281.375 699.424988 275.86499 693.401978 275.089966 C 692.937012 275.030029 692.468994 275 692 275 C 684.544006 275 677.932983 279.795044 675.617981 286.881958 L 655 350 L 694.857971 349.958008 Z"/>
    <path id="path5" fill="#f56843" stroke="none" d="M 695.505005 350.25 C 695.882019 350.25 696.200012 349.968994 696.247986 349.596008 L 704.294983 287.035034 C 705.122009 280.601013 700.578003 274.714966 694.143982 273.886963 C 693.646973 273.823975 693.146973 273.791992 692.645996 273.791992 C 684.86499 273.791992 677.96698 278.795044 675.551025 286.19104 L 654.932983 349.30896 C 654.773987 349.794006 655.135986 350.291992 655.645996 350.291992 L 695.505005 350.25 Z M 694.843994 348.750977 L 656.679993 348.790039 L 676.97699 286.656006 C 679.190979 279.877991 685.513977 275.291992 692.645996 275.291992 C 693.083008 275.291992 693.518982 275.31897 693.953003 275.375 C 699.565002 276.096985 703.528992 281.231995 702.807007 286.843994 L 694.843994 348.750977 Z"/>
    <path id="path6" fill="#ffd1d1" fill-rule="evenodd" stroke="none" d="M 496.5 503.5 L 572.872009 478.60498 C 581.528015 475.783997 587.843018 468.307007 589.176025 459.301025 L 605.5 349 L 694 349 L 678.341003 489.146973 C 675.583008 513.833984 662.284973 536.122009 641.870972 550.273987 L 555 610.5 L 496.5 503.5 Z"/>
    <path id="path7" fill="#ffafaf" fill-rule="evenodd" stroke="none" d="M 680 476.5 C 662.333008 486.166992 649.5 497.166992 641.5 509.5 C 633.5 521.833008 626.666992 540.333008 621 565 C 625.893005 561.43103 630.059998 558.43103 633.5 556 C 647.585999 546.044983 658.413025 536.98999 665 526.5 C 674 512.166992 679 495.5 680 476.5 Z"/>
    <path id="path8" fill="#f56843" stroke="none" d="M 583.870972 470.092041 C 583.877014 470.082031 583.883972 470.072998 583.890015 470.062988 C 583.909973 470.036011 583.929993 470.010986 583.952026 469.987 C 586.362 466.88501 587.992981 463.166016 588.590027 459.129028 L 604.900024 348.932007 C 604.953979 348.563965 605.27002 348.291992 605.640991 348.291992 L 694.140991 348.291992 C 694.588989 348.291992 694.937012 348.679993 694.887024 349.125 L 688.085999 409.990967 C 688.202026 410.135986 688.265015 410.325012 688.247009 410.526001 C 688.228027 410.737 688.122009 410.921021 687.968994 411.044006 L 679.237976 489.186035 C 676.450012 514.138 662.987976 536.65802 642.330994 550.927979 L 555.926025 610.617004 C 555.648987 610.807983 555.278015 610.791992 555.02002 610.575989 C 543.129028 600.65802 533.232971 588.078979 525.333984 572.844971 C 517.455017 557.650024 508.608002 534.112 498.78299 502.221008 C 498.661987 501.828003 498.880005 501.410034 499.272003 501.285034 L 572.656982 477.875 C 577.177979 476.432983 581.049011 473.682007 583.870972 470.092041 Z M 523.916992 494.997986 L 500.436005 502.489014 C 510.14801 533.940979 518.89502 557.166992 526.666016 572.155029 C 534.377991 587.028992 544.004028 599.328003 555.544006 609.057983 L 577.562988 593.846985 L 523.916992 494.997986 Z M 525.372009 494.533997 L 578.804993 592.989014 L 641.478027 549.69397 C 661.778015 535.671021 675.007019 513.539978 677.747009 489.019043 L 686.450989 411.117004 L 598.432983 403.204956 C 598.416016 403.203979 598.400024 403.202026 598.383972 403.198975 L 590.073975 459.348022 C 589.473999 463.403015 587.89502 467.156006 585.565002 470.339966 L 637.937012 507.890015 C 638.273987 508.131958 638.351013 508.599976 638.109009 508.937012 C 637.867981 509.273987 637.400024 509.351013 637.062988 509.109009 L 584.642029 471.523987 C 581.677002 475.098999 577.710999 477.837036 573.112976 479.303955 L 525.372009 494.533997 Z M 598.604004 401.714966 L 686.617981 409.625977 L 693.302979 349.791992 L 606.289001 349.791992 L 598.604004 401.714966 Z"/>
    <path id="path9" fill="#ffafaf" fill-rule="evenodd" stroke="none" d="M 359 519 C 359 519 335.666992 531.166992 289 555.5 L 308.858002 591.958008 L 369 551.458008 C 362.333008 529.81897 359 519 359 519 Z"/>
    <path id="path10" fill="#ffffff" fill-rule="evenodd" stroke="none" d="M 823 684.5 L 808.5 566.5 L 816 563 L 847 517 L 852.5 515.5 C 854.48999 515.025024 855.98999 515.025024 857 515.5 C 858.01001 515.976013 859.343994 517.309021 861 519.5 L 861 659.5 C 859.898987 662.14801 858.898987 663.981018 858 665 C 857.101013 666.018982 855.601013 667.018982 853.5 668 L 823 684.5 Z M 689.5 788.5 L 784.5 753.5 L 789 766.5 L 851 782.5 L 853.5 787 C 852.935974 790.30603 852.268982 792.638977 851.5 794 C 850.731018 795.361023 849.231018 796.861023 847 798.5 L 717.5 829 C 714.820984 829.268982 712.653992 828.934998 711 828 C 709.346008 827.065002 707.679016 825.231995 706 822.5 L 689.5 788.5 Z"/>
    <path id="path11" fill="#f56843" stroke="none" d="M 358.295013 518.375977 L 288.295013 554.875977 C 287.923004 555.070007 287.782013 555.531982 287.983002 555.900024 L 307.841003 592.359009 C 308.053009 592.747009 308.552002 592.869019 308.919006 592.622009 L 369.059998 552.122009 C 369.334991 551.937012 369.455994 551.594971 369.358002 551.278992 L 359.358002 518.820984 C 359.220001 518.372986 358.709991 518.159973 358.295013 518.375977 Z M 367.760986 551.189026 L 308.764008 590.916992 L 289.665009 555.853027 L 358.190002 520.122986 L 367.760986 551.189026 Z"/>
    <path id="path12" fill="#ffd1d1" fill-rule="evenodd" stroke="none" d="M 573.5 643 L 573.5 644.541992 L 505 512 L 408 553 C 409.808014 612.195007 418.093994 651.528015 432.858002 671 C 447.622986 690.471985 473.837006 696.638977 511.5 689.5 L 566 689.5 L 573.5 643 Z"/>
    <path id="path13" fill="#f56843" stroke="none" d="M 574.390991 643 L 574.390991 644.541992 C 574.390991 644.830994 574.249023 645.047974 574.051025 645.172974 L 566.882019 689.619995 C 566.822998 689.982971 566.51001 690.25 566.140991 690.25 L 511.712006 690.25 C 473.834015 697.416016 447.358002 691.177979 432.402008 671.453003 C 417.516998 651.820984 409.20401 612.362976 407.390991 553.02301 C 407.381989 552.713013 407.563995 552.429993 407.850006 552.309021 L 504.850006 511.30896 C 505.209991 511.156982 505.627991 511.307983 505.808014 511.656006 L 573.33197 642.309998 C 573.776001 642.124023 574.390991 642.375 574.390991 643 Z M 574.197998 644.254028 L 574.231995 644.049988 L 574.117981 643.830994 C 574.185974 643.960999 574.213013 644.109009 574.197998 644.254028 Z M 504.794006 512.960999 L 408.907013 553.491028 C 410.743011 612.254028 418.997009 651.291016 433.597992 670.546997 C 448.161011 689.754028 474.089996 695.854004 511.502014 688.763 L 511.640991 688.75 L 565.502991 688.75 L 572.671997 644.299988 L 504.794006 512.960999 Z"/>
    <path id="path14" fill="#ffafaf" fill-rule="evenodd" stroke="none" d="M 555.5 610.5 L 560.5 620 C 545.135986 632.119995 532.968994 640.619995 524 645.5 C 515.031006 650.380005 505.197998 654.880005 494.5 659 L 488.5 648.5 C 498.251007 644.289978 507.584991 639.622986 516.5 634.5 C 525.414978 629.377014 538.414978 621.377014 555.5 610.5 Z"/>
    <path id="path15" fill="#ffafaf" fill-rule="evenodd" stroke="none" d="M 585 814 L 822 685.5 L 809 567 L 574 682.5"/>
    <path id="path16" fill="#f56843" stroke="none" d="M 555.080994 609.377991 C 537.502014 621.228027 523.849976 629.88501 514.132019 635.346008 C 504.433014 640.797974 495.309998 644.945007 486.763 647.788025 C 486.369995 647.919006 486.15799 648.343994 486.287994 648.737 C 486.419006 649.130005 486.843994 649.343018 487.237 649.211975 C 495.878998 646.335999 505.088989 642.150024 514.867004 636.653992 C 524.627014 631.16803 538.309021 622.492004 555.919006 610.622009 C 556.263 610.390015 556.353027 609.924011 556.122009 609.580994 C 555.890015 609.237 555.424011 609.146973 555.080994 609.377991 Z"/>
    <path id="path17" fill="#f56843" stroke="none" d="M 560.405029 619.401978 C 544.085022 631.778992 529.828979 641.257996 517.643982 647.840027 C 505.510986 654.393005 497.239014 657.867981 492.933014 658.252991 C 492.520996 658.289978 492.216003 658.653992 492.252991 659.067017 C 492.290009 659.479004 492.653992 659.783997 493.066986 659.747009 C 497.64801 659.336975 506.041992 655.810974 518.356018 649.159973 C 530.617004 642.536987 544.934021 633.017029 561.312012 620.598022 C 561.642029 620.346985 561.705994 619.877014 561.455994 619.546997 C 561.205994 619.21698 560.734985 619.151978 560.405029 619.401978 Z"/>
    <path id="path18" fill="#f56843" stroke="none" d="M 821.447998 684.822021 C 821.421997 684.757996 821.403992 684.690002 821.395996 684.619019 L 808.400024 567.65802 L 573.973022 683.172974 C 573.601013 683.356018 573.151978 683.203003 572.968994 682.830994 C 572.786011 682.460022 572.937988 682.01001 573.309998 681.827026 L 814.632019 562.914978 L 845.502014 517.403015 C 846.588989 515.801025 848.40802 514.854004 850.343994 514.880005 C 851.030029 514.890015 851.685974 515.02002 852.29303 515.25 C 852.333984 515.18103 852.401978 515.096985 852.5 515 C 852.833008 514.666016 853.223022 514.455994 853.669006 514.367004 C 854.119995 514.276978 854.578003 514.231018 855.036987 514.22998 C 858.919983 514.223999 862.072021 517.367004 862.078003 521.25 L 862.288025 655.554016 C 862.296997 661.328979 859.419006 667.013 853.893005 668.408997 L 853.890991 668.510986 C 853.888 668.781982 853.737 669.030029 853.499023 669.158997 L 584.999023 814.658997 C 584.63501 814.856995 584.179016 814.721008 583.981995 814.356995 C 583.784973 813.992981 583.919983 813.538025 584.283997 813.340027 L 821.447998 684.822021 Z M 822.843994 684.065002 L 852.39801 668.049988 L 854.510986 520.692017 C 854.544006 518.344971 852.669006 516.414978 850.322021 516.380981 C 848.892029 516.361023 847.546997 517.060974 846.744019 518.244995 L 815.762024 563.921021 C 815.689026 564.028015 815.590027 564.11499 815.473022 564.172974 L 809.689026 567.02301 C 809.796021 567.137024 809.867981 567.286011 809.887024 567.453003 L 822.843994 684.065002 Z M 853.835999 516.127014 C 855.184021 517.197998 856.038025 518.859009 856.012024 520.713013 L 853.914978 666.846008 C 858.517029 665.450989 860.796021 660.502991 860.788025 655.557007 L 860.578003 521.252014 C 860.573975 518.197998 858.093994 515.726013 855.039001 515.72998 C 854.677979 515.731018 854.317993 515.767029 853.963013 515.838013 C 853.919006 515.947998 853.877014 516.044006 853.835999 516.127014 Z"/>
    <path id="path19" fill="#ffd1d1" fill-rule="evenodd" stroke="none" d="M 396 667.036011 L 403.641998 708.536011 L 460.635986 809.133972 C 475.631989 835.604004 507.596985 847.309998 536.142029 836.786011 L 556.117981 829.421021 C 575.335999 822.335999 591.914978 809.52002 603.612 792.705994 L 655.23999 718.5 L 689.5 788.5 L 784.5 753.5 L 717.713989 595.552002 C 710.396973 578.245972 693.43103 567 674.642029 567 C 654.788025 567 635.742981 574.86499 621.676025 588.875 L 532.142029 678.036011"/>
    <path id="path20" fill="#ffafaf" fill-rule="evenodd" stroke="none" d="M 618 592.5 C 634 604.833008 650.666992 613.666992 668 619 C 685.333008 624.333008 704.5 623.166992 725.5 615.5 C 720.812988 599.971008 715.645996 589.137024 710 583 C 703.273987 575.687988 690.731995 569.179016 683.5 567.5 C 674.010986 565.296997 656.484985 567.846008 642.5 574.5 C 635.771973 577.700989 627.60498 583.700989 618 592.5 Z"/>
    <path id="path21" fill="#f56843" stroke="none" d="M 853.260986 785.387024 L 853.531006 785.320984 L 853.541992 785.367981 C 855.098999 791.827026 851.125 798.325989 844.664978 799.882996 L 719.76001 829.994995 C 714.124023 831.354004 708.296997 828.757996 705.523987 823.705017 C 705.286987 823.666992 705.075012 823.515991 704.966003 823.289978 L 655.122009 719.945984 L 604.228027 793.098022 C 592.442993 810.038025 575.739014 822.950012 556.377014 830.088989 L 536.401001 837.453979 C 507.511993 848.10498 475.161011 836.257019 459.983002 809.468018 L 402.989014 708.869995 C 402.947998 708.796997 402.919006 708.718018 402.903992 708.635986 L 395.263 667.135986 C 395.187988 666.728027 395.457001 666.336975 395.864014 666.262024 C 396.272003 666.187012 396.662994 666.45697 396.738007 666.864014 L 404.355988 708.23999 L 461.287994 808.728027 C 476.102997 834.877991 507.683014 846.442993 535.882019 836.046021 L 555.857971 828.68103 C 574.932007 821.648987 591.387024 808.929016 602.997009 792.241028 L 654.624023 718.036011 C 654.952026 717.564026 655.666016 717.620972 655.916016 718.138 L 689.471985 787.710999 L 783.400024 753.106018 L 727.031982 619.567017 L 727.031982 619.567017 C 693.677002 635.827026 656.393005 628.028015 615.27301 596.27301 L 532.671021 678.531006 C 532.377014 678.823975 531.903015 678.822998 531.609985 678.528992 C 531.317993 678.236023 531.31897 677.760986 531.612 677.468994 L 621.145996 588.307007 C 635.35498 574.15802 654.590027 566.213989 674.642029 566.213989 C 693.731018 566.213989 710.965027 577.64502 718.388 595.231995 L 784.937012 752.890991 C 785.054993 752.974976 785.150024 753.093994 785.203979 753.241028 C 785.249023 753.364014 785.26001 753.491028 785.242004 753.612 L 790.187012 765.328003 L 848.927979 780.158997 C 851.026978 780.689026 852.651001 782.353027 853.129028 784.465027 C 853.198975 784.77301 853.242004 785.08197 853.260986 785.387024 Z M 852.359985 788.840027 C 851.572998 790.065979 850.322998 790.994995 848.789978 791.34198 L 707.083984 823.406982 C 709.617981 827.588013 714.59198 829.697998 719.408997 828.536987 L 844.314026 798.424988 C 848.919983 797.315002 852.08197 793.333984 852.359985 788.840027 Z M 690.125977 789.06897 L 706.057983 822.101013 L 848.458984 789.879028 C 850.747986 789.361023 852.184021 787.085022 851.666016 784.796021 C 851.312988 783.234985 850.112976 782.005005 848.560974 781.612976 L 789.458008 766.690979 C 789.22998 766.632996 789.041992 766.471985 788.950989 766.255981 L 783.984009 754.489014 L 690.125977 789.06897 Z M 726.447998 618.182983 L 717.005981 595.815002 C 709.817017 578.783997 693.127991 567.713989 674.642029 567.713989 C 654.987 567.713989 636.132019 575.500977 622.205017 589.369995 L 616.344971 595.205017 C 657.018982 626.564026 693.689026 634.189026 726.447998 618.182983 L 726.447998 618.182983 Z"/>
    <path id="path22" fill="#ffd1d1" fill-rule="evenodd" stroke="none" d="M 445 502 L 257.983002 621.432983 C 215.442993 648.599976 199.817993 703.208984 221.548004 748.765991 L 234.959 776.882019 C 258.737 826.72998 318.421997 847.86499 368.269989 824.086975 C 370.932007 822.817993 373.536987 821.43103 376.075989 819.93103 L 461.631012 769.39502 C 477.563995 759.982971 490.572998 746.335022 499.210999 729.968994 L 500.25 728 C 509.200989 711.039978 509.480988 690.817017 501.002991 673.616028 L 480 631 C 448.824005 654.244019 431.990997 670.244019 429.5 679 C 427.278992 686.807983 401.859009 702.893982 353.23999 727.257019 C 342.695007 732.541016 329.859985 728.838989 323.75 718.75 C 318.84201 710.645996 321.433014 700.098999 329.536011 695.190979 C 330.463013 694.630005 331.440002 694.15802 332.454987 693.781006 L 423.5 660"/>
    <path id="path23" fill="#ffafaf" fill-rule="evenodd" stroke="none" d="M 219 744 C 221.5 751 232.354996 772.914001 236.5 780 C 240.860001 787.455017 245.5 794.5 251.5 801.5 C 257.441986 808.432007 265.436005 815.284973 277.5 821.5 C 281.536011 823.578979 285.869995 825.745972 290.5 828 C 287.385986 801.721008 283.885986 783.388 280 773 C 276.850006 764.578003 273.645996 756.137024 269 749.5 C 257.333008 732.833008 238.475998 715.987 212.429993 698.960022 C 210.143005 710.320007 212.332993 725.333008 219 744 Z"/>
    <path id="path24" fill="#ffffff" fill-rule="evenodd" stroke="none" d="M 433 669.5 L 434 682.5 C 446.032013 705.275024 453.428986 719.023987 456.191986 723.747986 C 459.098999 728.71698 464.868011 740.968018 473.5 760.5 C 483.173004 752.122009 490.839996 743.455017 496.5 734.5 C 502.160004 725.544983 505.660004 716.544983 507 707.5 C 508.333008 695.5 505 682 497 667 C 493.01001 659.518005 487.175995 647.018005 479.5 629.5 C 457.742004 641.021973 442.575012 650.521973 434 658 C 425.424988 665.479004 425.09201 669.312012 433 669.5 Z"/>
    <path id="path25" fill="#f56843" stroke="none" d="M 499.971985 673.489014 C 508.343994 690.474976 508.066986 710.44397 499.227997 727.192017 L 498.188995 729.161011 C 489.615997 745.403992 476.704987 758.950012 460.890991 768.289978 L 375.029999 819.007019 C 372.60199 820.440979 370.114014 821.770996 367.572998 822.994019 C 318.175995 846.752991 258.871002 825.969971 235.110992 776.572021 L 222.197006 749.721985 C 200.604004 704.830994 215.634003 650.888 257.328003 623.629028 L 442.410004 502.627991 C 442.756989 502.401001 442.854004 501.936035 442.627991 501.589966 C 442.401001 501.243042 441.936005 501.145996 441.589996 501.372009 L 256.506989 622.374023 C 214.182999 650.044983 198.925995 704.802002 220.845001 750.372009 L 233.759995 777.223022 C 257.877991 827.366028 318.079987 848.463989 368.223999 824.344971 C 370.803009 823.10498 373.32901 821.755005 375.792999 820.299011 L 461.653992 769.58197 C 477.707001 760.099976 490.812988 746.348999 499.515991 729.861023 L 500.554993 727.892029 C 509.618011 710.718994 509.902008 690.242981 501.317993 672.825989 L 480.313995 630.210022 C 480.135986 629.848022 479.703003 629.692017 479.334991 629.856995 C 454.46701 641.007019 439.209015 649.351013 433.475006 654.963989 C 430.854004 657.531006 429.399994 660.773987 428.804993 664.70697 C 428.43399 667.159973 428.40799 669.278015 428.55899 673.067017 C 428.691986 676.395996 428.682007 677.416992 428.420013 678.335999 C 426.290985 685.822021 400.839996 701.927979 352.54599 726.127991 C 342.350006 731.237 329.94101 727.656982 324.03299 717.903015 C 319.412994 710.273987 321.85199 700.343018 329.480988 695.721985 C 330.42099 695.153015 331.415985 694.682007 332.450989 694.315002 L 427.251007 660.70697 C 427.640991 660.56897 427.845001 660.140015 427.707001 659.749023 C 427.569 659.359009 427.140015 659.155029 426.748993 659.29303 L 331.950012 692.901001 C 330.817993 693.302002 329.730988 693.817993 328.70401 694.439026 C 320.365997 699.489014 317.700012 710.34198 322.75 718.679993 C 329.062988 729.103027 342.322998 732.929016 353.217987 727.468994 C 402.161011 702.942993 427.549988 686.877014 429.863007 678.747009 C 430.188995 677.599976 430.200012 676.557007 430.058014 673.007019 C 429.910004 669.309021 429.936005 667.262024 430.287994 664.932007 C 430.838013 661.299011 432.15799 658.353027 434.524994 656.036011 C 440.033997 650.643005 454.981995 642.447021 479.289001 631.521973 L 499.971985 673.489014 Z"/>
    <path id="path26" fill="#ffd1d1" fill-rule="evenodd" stroke="#f56843" stroke-width="1.5" stroke-linecap="round" stroke-linejoin="round" d="M 505.141998 511.900024 C 487.670013 473.084961 477.170013 447.299011 473.641998 434.541016 C 462.20401 393.188965 454.221985 357.119019 411.498993 357.119019 C 368.776001 357.119019 334.141998 391.754028 334.141998 434.478027 C 334.141998 446.646973 344.641998 485.669006 365.641998 551.541016 C 396.613007 551.416992 421.670013 549.875 440.812988 546.914978 C 459.955994 543.953979 481.398987 532.28302 505.141998 511.900024 Z"/>
    <path id="path27" fill="#ffd1d1" fill-rule="evenodd" stroke="none" d="M 505 511.781006 C 487.528992 472.966003 477.028992 447.179993 473.5 434.421997 C 462.062012 393.070007 454.079987 357 411.356995 357 C 368.634003 357 334 391.63501 334 434.359009 C 334 446.528015 344.5 485.549011 365.5 551.421997 C 396.471985 551.297974 421.528992 549.755981 440.67099 546.794983 C 459.813995 543.835022 481.256989 532.164001 505 511.781006 Z"/>
    <path id="path28" fill="none" stroke="#f56843" stroke-width="1.5" stroke-linecap="round" stroke-linejoin="round" d="M 505 511.781006 C 487.528992 472.966003 477.028992 447.179993 473.5 434.421997 C 462.062012 393.070007 454.079987 357 411.356995 357 C 368.634003 357 334 391.63501 334 434.359009 C 334 446.528015 344.5 485.549011 365.5 551.421997 C 396.471985 551.297974 421.528992 549.755981 440.67099 546.794983 C 459.813995 543.835022 481.256989 532.164001 505 511.781006 Z"/>
    <path id="path29" fill="#f56843" stroke="none" d="M 505.68399 511.473022 C 488.229004 472.69397 477.738007 446.929993 474.222992 434.221985 C 473.763 432.55896 471.723999 425.131958 471.174988 423.151001 C 464.445007 398.865967 459.787994 386.464966 452.290985 376.046021 C 442.822998 362.888 429.872009 356.25 411.356995 356.25 C 368.220001 356.25 333.25 391.219971 333.25 434.359009 C 333.25 446.644043 343.751007 485.669006 364.785004 551.650024 C 364.88501 551.961975 365.174988 552.171997 365.502991 552.171997 C 396.509003 552.047974 421.601013 550.502991 440.786011 547.536987 C 460.088013 544.552002 481.648987 532.815979 505.489014 512.349976 C 505.740997 512.132996 505.820007 511.776001 505.68399 511.473022 Z M 440.557007 546.054016 C 421.569 548.991028 396.730988 550.530029 366.046997 550.669983 C 345.192993 485.223022 334.75 446.380005 334.75 434.359009 C 334.75 392.049011 369.048004 357.75 411.356995 357.75 C 429.390015 357.75 441.888 364.156006 451.072998 376.921997 C 458.432007 387.148987 463.04599 399.436035 469.730011 423.552002 C 470.278015 425.530029 472.31601 432.955994 472.777008 434.622009 C 476.303986 447.372986 486.735992 473.010986 504.085999 511.575989 C 480.609009 531.650024 459.427002 543.135986 440.557007 546.054016 Z"/>
    <path id="path30" fill="#f56843" stroke="none" d="M 375.174011 469.958984 C 375.174011 469.958984 416.942993 486.359985 480.408997 464.05603 C 481.5 463.672974 482.696014 462.988037 484 462 C 480.717987 455.434998 478.717987 450.934998 478 448.5 C 475.075012 438.588013 474.803986 432.291992 471.5 426 C 469.364014 421.93396 468.617004 414.995972 466.5 408.5 C 465.358002 404.995972 463.19101 399.495972 460 392 C 456.82901 385.705994 454.661987 381.539001 453.5 379.5 C 451.720001 376.377991 451.718994 373.329956 449.398987 373.667969 C 436.855011 375.494019 423.32901 383.629028 408.819 398.075012 C 375.101013 431.64502 375.174011 469.958984 375.174011 469.958984 Z"/>
    <path id="path31" fill="#ffffff" fill-rule="evenodd" stroke="none" d="M 402 405.5 C 405.5 401.5 407.437012 398.994995 410.5 396 C 413.562988 393.005005 417.5 389.5 424.5 384.5 C 428.166992 394.166992 431.833008 404.666992 436.5 419 C 443.5 440.5 432.415985 443.890015 419 429.5 C 410.056 419.906982 404.721985 412.23999 402 405.5 Z M 441.660004 404.256958 C 444.153992 404.432007 445.511993 415.252991 446.273987 417.110962 C 446.699005 418.145996 446.20401 419.329956 445.169006 419.754028 C 444.222992 420.141968 443.135986 419.765015 442.634003 418.874023 C 439.712006 413.687988 438.261993 410.575012 438.28299 409.535034 C 438.338013 406.906006 439.165985 404.083008 441.660004 404.256958 Z"/>
    <path id="path32" fill="#f56843" stroke="none" d="M 427.641998 658 C 461.330994 658 488.641998 630.689026 488.641998 597 C 488.641998 563.310974 461.330994 536 427.641998 536 C 393.951996 536 366.641998 563.310974 366.641998 597 C 366.641998 630.689026 393.951996 658 427.641998 658 Z"/>
    <path id="path33" fill="#f56843" stroke="none" d="M 375.872986 464.834961 C 370.600006 441.43396 378.345001 419.187988 399.175995 398.026001 C 420.011993 376.859985 434.731995 366.60498 443.084015 367.247986 C 443.497009 367.278992 442.967987 367.412964 443 367 C 443.032013 366.587036 442.912994 366.531982 442.5 366.5 C 442.260986 366.480957 442.71701 365.723022 442.470001 365.719971 C 433.417999 365.622986 418.709015 376.045044 398.106995 396.973999 C 376.937988 418.479004 369.016998 441.231995 374.410004 465.165039 C 374.501007 465.56897 374.902008 465.822021 375.307007 465.730957 C 375.710999 465.640015 375.963989 465.239014 375.872986 464.834961 Z"/>
    <path id="path34" fill="#ffffff" fill-rule="evenodd" stroke="none" d="M 388.141998 644.5 L 410.641998 586.963989 L 467.072998 570.606995 C 469.194 569.992004 471.412994 571.213013 472.028015 573.335022 C 472.39801 574.612976 472.109985 575.98999 471.256989 577.012024 L 439.141998 615.5 L 436.5 658 L 388.141998 644.5 Z"/>
    <path id="path35" fill="#ffd1d1" fill-rule="evenodd" stroke="none" d="M 410.515991 587 C 402.839996 595.38501 397.959991 600.896973 395.875 603.536011 C 384.928009 617.392029 385.330994 622.630005 390.515991 626 C 400.515991 632.5 410.875 645.536011 417.875 633.536011 C 422.540985 625.536011 420.088013 610.023987 410.515991 587 Z"/>
    <path id="path36" fill="#f56843" stroke="none" d="M 410.088013 586.458008 C 410.459015 586.052979 411.123993 586.169983 411.334015 586.676025 C 420.992004 609.906982 423.473999 625.604004 418.64801 633.877991 C 415.894989 638.596985 412.390015 640.015991 408.093994 638.648987 C 404.990997 637.661011 402.641998 636.05603 396.402008 631.151001 C 394.90799 629.976013 394.03299 629.299988 393.093994 628.599976 C 392.057007 627.828979 391.122009 627.171021 390.233002 626.593018 C 383.946991 622.507019 385.093994 616.093994 395.411987 603.034973 C 397.511993 600.377014 402.398987 594.856995 410.088013 586.458008 Z M 417.35199 633.122009 C 421.786987 625.52002 419.510986 610.557007 410.398987 588.341003 C 403.192993 596.223999 398.585999 601.437012 396.588989 603.965027 C 386.743988 616.426025 385.765015 621.900024 391.049988 625.335022 C 391.968994 625.932007 392.928986 626.607971 393.989014 627.396973 C 394.941986 628.106018 395.825012 628.789001 397.32901 629.971985 C 403.398987 634.744019 405.692993 636.310974 408.549011 637.219971 C 412.165009 638.370972 414.947998 637.244019 417.35199 633.122009 Z M 440.884003 613.572021 C 441.119995 613.231995 441.588013 613.14801 441.928009 613.383972 C 442.268005 613.619995 442.35199 614.088013 442.115997 614.427979 C 439.210999 618.611023 436.536987 620.75 434 620.75 C 433.585999 620.75 433.25 620.414001 433.25 620 C 433.25 619.585999 433.585999 619.25 434 619.25 C 435.907013 619.25 438.234009 617.388977 440.884003 613.572021 Z"/>
    <path id="path37" fill="#ffffff" stroke="none" d="M 372.5 479 C 376.641998 479 380 475.641968 380 471.5 C 380 467.358032 376.641998 464 372.5 464 C 368.358002 464 365 467.358032 365 471.5 C 365 475.641968 368.358002 479 372.5 479 Z"/>
    <path id="path38" fill="#f56843" stroke="none" d="M 372.141998 479.75 C 376.697998 479.75 380.391998 476.05603 380.391998 471.5 C 380.391998 466.94397 376.697998 463.25 372.141998 463.25 C 367.584991 463.25 363.891998 466.94397 363.891998 471.5 C 363.891998 476.05603 367.584991 479.75 372.141998 479.75 Z M 372.141998 478.25 C 368.414001 478.25 365.391998 475.228027 365.391998 471.5 C 365.391998 467.771973 368.414001 464.75 372.141998 464.75 C 375.869995 464.75 378.891998 467.771973 378.891998 471.5 C 378.891998 475.228027 375.869995 478.25 372.141998 478.25 Z"/>
    <path id="path39" fill="#f56843" stroke="none" d="M 372.141998 475.75 C 374.743988 475.75 376.891998 473.870972 376.891998 471.5 C 376.891998 469.129028 374.743988 467.25 372.141998 467.25 C 369.539001 467.25 367.391998 469.129028 367.391998 471.5 C 367.391998 473.870972 369.539001 475.75 372.141998 475.75 Z M 372.141998 474.25 C 370.325989 474.25 368.891998 472.994995 368.891998 471.5 C 368.891998 470.005005 370.325989 468.75 372.141998 468.75 C 373.957001 468.75 375.391998 470.005005 375.391998 471.5 C 375.391998 472.994995 373.957001 474.25 372.141998 474.25 Z"/>
    <path id="path40" fill="#ffffff" fill-rule="evenodd" stroke="none" d="M 436.5 654.5 L 433.641998 682.5 L 391.141998 707.5 L 357.5 725 L 341 703 C 354.79599 702.200989 362.628998 700.033997 364.5 696.5 C 370.036987 686.039978 377.869995 668.872986 388 645 L 436.5 654.5 Z"/>
    <path id="path41" fill="#f56843" stroke="none" d="M 436.644012 653.263977 C 437.023987 653.338989 437.285004 653.690979 437.246002 654.075989 L 434.388 682.075989 C 434.363007 682.314026 434.22699 682.525024 434.022003 682.646973 L 391.488007 707.664978 L 357.846008 725.164978 C 357.519989 725.335022 357.119995 725.244019 356.899994 724.950012 L 340.399994 702.950012 C 340.040985 702.471985 340.359009 701.786011 340.957001 701.750977 C 354.473999 700.968018 362.144989 698.846008 363.837006 695.648987 C 369.362 685.213013 377.187012 668.062012 387.30899 644.20697 C 387.447998 643.880981 387.79599 643.695984 388.144012 643.763977 L 436.644012 653.263977 Z M 388.453003 645.353027 C 378.429993 668.953003 370.669006 685.950012 365.162994 696.351013 C 363.182007 700.09198 355.645996 702.283997 342.43399 703.161987 L 357.717987 723.541016 L 390.760986 706.354004 L 432.93399 681.546021 L 435.68399 654.60498 L 388.453003 645.353027 Z M 433.260986 681.354004 L 432.894989 681.924011 L 432.93399 681.546021 L 433.260986 681.354004 Z"/>
    <path id="path42" fill="#ffffff" fill-rule="evenodd" stroke="none" d="M 254 450 C 249.029007 450 245 445.971008 245 441 C 245 436.028992 249.029007 432 254 432 C 258.971008 432 263 436.028992 263 441 C 263 445.971008 258.971008 450 254 450 Z M 342 472.5 L 344.358002 481.5 C 343.792999 481.692017 343.233002 481.900024 342.678986 482.124023 C 326.868011 488.52301 319.239014 506.528015 325.638 522.338989 L 330.358002 534 L 321.358002 539 L 316.033997 521.666992 C 310.290985 502.969971 319.285004 482.911011 337.06601 474.761963 L 342 472.5 Z"/>
    <path id="path43" fill="#f56843" stroke="none" d="M 274.742004 483.109985 C 274.765015 482.955994 274.739014 482.799011 274.669006 482.661011 L 257.669006 449.161011 C 257.480988 448.791016 257.029999 448.644043 256.661011 448.830994 C 256.290985 449.019043 256.144012 449.469971 256.330994 449.839966 L 273.222992 483.127014 L 271.257996 496.390015 C 271.208008 496.729004 271.394012 497.059998 271.709991 497.192017 L 285.423004 502.93103 L 307.838989 544.588013 C 308.036011 544.952026 308.490997 545.088989 308.855011 544.893005 C 309.220001 544.695984 309.356995 544.241028 309.160004 543.877014 L 286.618011 501.985962 C 286.536987 501.834961 286.406006 501.716003 286.247009 501.650024 L 272.826996 496.032959 L 274.742004 483.109985 Z"/>
    <path id="path44" fill="#f56843" stroke="none" d="M 253.641998 450.75 C 248.257004 450.75 243.891998 446.38501 243.891998 441 C 243.891998 435.61499 248.257004 431.25 253.641998 431.25 C 259.026001 431.25 263.391998 435.61499 263.391998 441 C 263.391998 446.38501 259.026001 450.75 253.641998 450.75 Z M 253.641998 449.25 C 258.197998 449.25 261.891998 445.55603 261.891998 441 C 261.891998 436.44397 258.197998 432.75 253.641998 432.75 C 249.085007 432.75 245.391998 436.44397 245.391998 441 C 245.391998 445.55603 249.085007 449.25 253.641998 449.25 Z M 341.32901 471.817993 C 341.752991 471.624023 342.248993 471.859009 342.367004 472.309998 L 344.726013 481.309998 C 344.825012 481.69104 344.614014 482.083984 344.240997 482.209961 C 343.688995 482.396973 343.141998 482.599976 342.60199 482.81897 C 327.174988 489.062988 319.730988 506.630981 325.975006 522.057983 L 330.695007 533.718994 C 330.837006 534.070007 330.695007 534.471985 330.364014 534.656006 L 321.364014 539.656006 C 320.946991 539.887024 320.423004 539.676025 320.28299 539.219971 L 314.959015 521.887024 C 309.105011 502.830994 318.272003 482.385986 336.394989 474.079956 L 341.32901 471.817993 Z M 337.019989 475.442993 C 319.580994 483.436035 310.76001 503.109009 316.393005 521.445984 L 321.445007 537.89502 L 329.056 533.666992 L 324.584991 522.619995 C 318.029999 506.426025 325.843994 487.984009 342.039001 481.428955 C 342.390015 481.286987 342.743011 481.151001 343.098999 481.020996 L 341.141998 473.553955 L 337.019989 475.442993 Z"/>
    <path id="path45" fill="#f56843" stroke="none" d="M 272.681 744.33197 C 285.778992 762.185974 294.122009 790.71698 297.747009 829.93103 L 296.252991 830.06897 C 292.597992 790.528992 284.13501 761.987 270.901001 744.452026 C 260.084015 730.119019 248.468994 718.312988 236.509003 708.796021 C 227.731995 701.809998 219.518997 696.632019 212.324005 693.021973 L 212.996994 691.68103 C 220.281006 695.335999 228.582001 700.570007 237.444 707.622009 C 249.380005 717.120972 260.970001 728.875 271.77301 743.117981 L 322.143005 715.841003 C 322.506989 715.643005 322.962006 715.778992 323.160004 716.143005 C 323.356995 716.507019 323.221985 716.961975 322.856995 717.159973 L 272.681 744.33197 Z M 344.233002 730.151001 C 344.035004 729.788025 344.169006 729.33197 344.532013 729.132996 C 344.895996 728.934998 345.351013 729.06897 345.549988 729.432007 L 390.15799 811.140991 C 390.356995 811.504028 390.222992 811.960022 389.859985 812.15802 C 389.496002 812.356995 389.040009 812.223022 388.84201 811.859985 L 344.233002 730.151001 Z M 327.865997 695.669983 C 328.049011 696.041016 327.894989 696.491028 327.52301 696.672974 C 327.152008 696.856018 326.701996 696.703003 326.519989 696.330994 L 282.326996 606.330994 C 282.144012 605.958984 282.298004 605.51001 282.670013 605.327026 C 283.040985 605.143982 283.490997 605.297974 283.673004 605.669983 L 327.865997 695.669983 Z"/>
    <path id="path46" fill="none" stroke="#f56843" stroke-width="1.5" stroke-linecap="round" stroke-linejoin="round" d="M 366 552 L 388.141998 597"/>
    <path id="path47" fill="none" stroke="#f56843" stroke-width="1.5" stroke-linecap="round" stroke-linejoin="round" d="M 433.891998 682.25 L 473.5 760.153015"/>
    <path id="path48" fill="#f56843" stroke="none" d="M 1059.300049 325.778015 C 1059.699951 325.666016 1060.109985 325.89801 1060.219971 326.296997 C 1060.329956 326.695007 1060.099976 327.109985 1059.699951 327.221985 L 996.060974 345.148987 C 980.512024 349.528992 971.45697 365.684998 975.836975 381.234009 C 976.857971 384.859009 978.56897 388.252014 980.877014 391.22699 L 990.208984 403.263 C 999.255981 414.93103 997.132019 431.723999 985.463989 440.770996 C 980.224976 444.833984 973.663025 446.803955 967.052002 446.301025 L 934.960022 443.856995 C 918.66803 442.615967 902.760986 449.218018 892.135986 461.630005 L 876.570007 479.813965 C 876.299988 480.129028 875.827026 480.165039 875.512024 479.895996 C 875.197998 479.627014 875.161011 479.153015 875.429993 478.838989 L 890.995972 460.655029 C 901.932983 447.879028 918.304993 441.083984 935.073975 442.360962 L 967.166016 444.804993 C 973.406006 445.280029 979.598999 443.420044 984.544983 439.585999 C 995.557983 431.046021 997.562988 415.195007 989.02301 404.182007 L 979.690979 392.145996 C 977.265991 389.018005 975.46698 385.450989 974.393982 381.640991 C 969.789001 365.295044 979.307983 348.309998 995.653992 343.705994 L 1059.300049 325.778015 Z M 949 543 L 949 530 C 949 529.447998 949.447998 529 950 529 C 950.552002 529 951 529.447998 951 530 L 951 543 L 964 543 C 964.552002 543 965 543.447998 965 544 C 965 544.552002 964.552002 545 964 545 L 951 545 L 951 558 C 951 558.552002 950.552002 559 950 559 C 949.447998 559 949 558.552002 949 558 L 949 545 L 936 545 C 935.447998 545 935 544.552002 935 544 C 935 543.447998 935.447998 543 936 543 L 949 543 Z M 481 223 L 481 210 C 481 209.447998 481.447998 209 482 209 C 482.552002 209 483 209.447998 483 210 L 483 223 L 496 223 C 496.552002 223 497 223.447998 497 224 C 497 224.552002 496.552002 225 496 225 L 483 225 L 483 238 C 483 238.552002 482.552002 239 482 239 C 481.447998 239 481 238.552002 481 238 L 481 225 L 468 225 C 467.447998 225 467 224.552002 467 224 C 467 223.447998 467.447998 223 468 223 L 481 223 Z M 905 281 L 905 268 C 905 267.447998 905.447998 267 906 267 C 906.552002 267 907 267.447998 907 268 L 907 281 L 920 281 C 920.552002 281 921 281.447998 921 282 C 921 282.552002 920.552002 283 920 283 L 907 283 L 907 296 C 907 296.552002 906.552002 297 906 297 C 905.447998 297 905 296.552002 905 296 L 905 283 L 892 283 C 891.447998 283 891 282.552002 891 282 C 891 281.447998 891.447998 281 892 281 L 905 281 Z M 176 543 L 176 533 C 176 532.447998 176.447998 532 177 532 C 177.552002 532 178 532.447998 178 533 L 178 543 L 188 543 C 188.552002 543 189 543.447998 189 544 C 189 544.552002 188.552002 545 188 545 L 178 545 L 178 555 C 178 555.552002 177.552002 556 177 556 C 176.447998 556 176 555.552002 176 555 L 176 545 L 166 545 C 165.447998 545 165 544.552002 165 544 C 165 543.447998 165.447998 543 166 543 L 176 543 Z M 789.5 398 L 789.5 388.5 C 789.5 387.947998 789.947998 387.5 790.5 387.5 C 791.052002 387.5 791.5 387.947998 791.5 388.5 L 791.5 398 L 801 398 C 801.552002 398 802 398.447998 802 399 C 802 399.552002 801.552002 400 801 400 L 791.5 400 L 791.5 409.5 C 791.5 410.052002 791.052002 410.5 790.5 410.5 C 789.947998 410.5 789.5 410.052002 789.5 409.5 L 789.5 400 L 780 400 C 779.447998 400 779 399.552002 779 399 C 779 398.447998 779.447998 398 780 398 L 789.5 398 Z M 535.5 368.5 L 535.5 359 C 535.5 358.447998 535.947998 358 536.5 358 C 537.052002 358 537.5 358.447998 537.5 359 L 537.5 368.5 L 547 368.5 C 547.552002 368.5 548 368.947998 548 369.5 C 548 370.052002 547.552002 370.5 547 370.5 L 537.5 370.5 L 537.5 380 C 537.5 380.552002 537.052002 381 536.5 381 C 535.947998 381 535.5 380.552002 535.5 380 L 535.5 370.5 L 526 370.5 C 525.447998 370.5 525 370.052002 525 369.5 C 525 368.947998 525.447998 368.5 526 368.5 L 535.5 368.5 Z"/>
    <path id="path49" fill="#ffd1d1" fill-rule="evenodd" stroke="none" d="M 437.167999 586.481995 C 432.309998 583 428.335999 582.130005 425.244995 583.869995 C 420.609009 586.481995 414.647003 591.705017 417.959015 598.232971 C 421.270996 604.762024 423.920013 609.984985 427.231995 609.984985 C 430.544006 609.984985 436.505005 610.637024 439.816986 603.455994 C 442.024994 598.66803 441.141998 593.01001 437.167999 586.481995 Z"/>
    <path id="path50" fill="#ffffff" fill-rule="evenodd" stroke="none" d="M 436.895996 589.484985 C 436.553986 593.026001 435.373993 595.307007 433.359009 596.330017 C 431.596008 597.223999 428.838013 597.744995 425.085999 597.892029 C 423.429993 597.95697 422.036011 596.66803 421.971008 595.012024 C 421.947998 594.445007 422.087006 593.882996 422.372009 593.392029 C 424.434998 589.825989 426.264008 587.638977 427.859009 586.830017 C 429.532013 585.981018 431.716003 585.78302 434.408997 586.237 C 435.962006 586.499023 437.048004 587.916992 436.895996 589.484985 Z"/>
    <path id="path51" fill="#f56843" stroke="none" d="M 435.653015 590.669006 C 435.148987 591.460999 434.149994 592 433 592 C 431.342987 592 430 590.880981 430 589.5 C 430 588.151978 431.279999 587.052979 432.881989 587.002014 C 430.819 586.780029 429.140991 587.008972 427.838989 587.669006 C 426.408997 588.393982 424.65799 590.487976 422.661987 593.937012 C 422.449005 594.30603 422.345001 594.72699 422.362 595.153015 C 422.410004 596.393982 423.455994 597.361023 424.697998 597.312988 C 428.35199 597.169006 431.014008 596.666992 432.661011 595.830994 C 434.210999 595.044983 435.218994 593.346008 435.653015 590.669006 Z M 434.243011 587.223999 C 434.492004 587.304016 434.721008 587.426025 434.921997 587.580017 C 434.71701 587.437988 434.489014 587.317017 434.243011 587.223999 Z M 437.285004 589.72699 C 436.919006 593.499023 435.621002 596.012024 433.338989 597.169006 C 431.460999 598.120972 428.608002 598.659973 424.756989 598.810974 C 422.687012 598.893005 420.944 597.281006 420.863007 595.210999 C 420.834991 594.502014 421.009003 593.799988 421.364014 593.185974 C 423.493988 589.504028 425.402008 587.223022 427.161011 586.330994 C 428.993988 585.401001 431.335999 585.189026 434.174988 585.666992 C 436.115997 585.994995 437.473999 587.767029 437.285004 589.72699 Z"/>
    <path id="path52" fill="#ffd1d1" fill-rule="evenodd" stroke="none" d="M 468.5 570.26001 C 466.160004 569.674988 463.691986 570.077026 461.095001 571.466003 L 461.095001 571.46698 C 460.608002 571.72699 460.424988 572.333008 460.684998 572.820007 C 460.73999 572.922974 460.812988 573.015015 460.898987 573.093018 C 461.890991 573.981018 463.091003 574.486023 464.5 574.606018 C 466.365997 574.765991 468.53299 574.765991 471 574.606018 C 472 572.375 471.166992 570.927002 468.5 570.26001 Z"/>
    <path id="path53" fill="#f56843" stroke="none" d="M 469.182007 569.426025 C 466.651001 568.79303 463.993988 569.226013 461.240997 570.698975 C 460.389008 571.155029 460.067993 572.215027 460.523987 573.067017 C 460.619995 573.247009 460.747009 573.408997 460.898987 573.544983 C 462.014008 574.544006 463.368011 575.112976 464.936005 575.247009 C 466.842987 575.409973 469.04599 575.409973 471.548004 575.247986 C 471.825989 575.22998 472.071014 575.059998 472.18399 574.807007 C 473.385986 572.125 472.278992 570.200012 469.182007 569.426025 Z M 465.063995 573.752991 C 463.815002 573.645996 462.768005 573.205994 461.899994 572.427979 C 461.877991 572.408997 461.859985 572.385986 461.846985 572.359985 C 461.781006 572.237976 461.826996 572.086975 461.949005 572.020996 C 464.390015 570.716003 466.670013 570.343994 468.817993 570.880981 C 470.875 571.395996 471.513 572.258972 470.980988 573.780029 C 468.743988 573.90802 466.770996 573.898987 465.063995 573.752991 Z"/>
    <path id="path54" fill="#ffffff" fill-rule="evenodd" stroke="none" d="M 1090 281 L 1080 283.5 L 1105.5 308.5 L 1108.5 298.5"/>
    <path id="path55" fill="#ffffff" stroke="none" d="M 706.5 790 C 710.642029 790 714 786.642029 714 782.5 C 714 778.357971 710.642029 775 706.5 775 C 702.357971 775 699 778.357971 699 782.5 C 699 786.642029 702.357971 790 706.5 790 Z"/>
    <path id="path56" fill="#f56843" stroke="none" d="M 706.142029 790.75 C 710.697998 790.75 714.392029 787.05603 714.392029 782.5 C 714.392029 777.94397 710.697998 774.25 706.142029 774.25 C 701.585022 774.25 697.892029 777.94397 697.892029 782.5 C 697.892029 787.05603 701.585022 790.75 706.142029 790.75 Z M 706.142029 789.25 C 702.414001 789.25 699.392029 786.228027 699.392029 782.5 C 699.392029 778.771973 702.414001 775.75 706.142029 775.75 C 709.869995 775.75 712.892029 778.771973 712.892029 782.5 C 712.892029 786.228027 709.869995 789.25 706.142029 789.25 Z"/>
    <path id="path57" fill="#ffffff" stroke="none" d="M 819.5 671 C 823.642029 671 827 667.642029 827 663.5 C 827 659.357971 823.642029 656 819.5 656 C 815.357971 656 812 659.357971 812 663.5 C 812 667.642029 815.357971 671 819.5 671 Z"/>
    <path id="path58" fill="#f56843" stroke="none" d="M 819.5 671.75 C 824.05603 671.75 827.75 668.05603 827.75 663.5 C 827.75 658.94397 824.05603 655.25 819.5 655.25 C 814.94397 655.25 811.25 658.94397 811.25 663.5 C 811.25 668.05603 814.94397 671.75 819.5 671.75 Z M 819.5 670.25 C 815.771973 670.25 812.75 667.228027 812.75 663.5 C 812.75 659.771973 815.771973 656.75 819.5 656.75 C 823.228027 656.75 826.25 659.771973 826.25 663.5 C 826.25 667.228027 823.228027 670.25 819.5 670.25 Z"/>
    <path id="path59" fill="#f56843" stroke="none" d="M 706.142029 786.75 C 708.744019 786.75 710.892029 784.870972 710.892029 782.5 C 710.892029 780.129028 708.744019 778.25 706.142029 778.25 C 703.539001 778.25 701.392029 780.129028 701.392029 782.5 C 701.392029 784.870972 703.539001 786.75 706.142029 786.75 Z M 706.142029 785.25 C 704.325989 785.25 702.892029 783.994995 702.892029 782.5 C 702.892029 781.005005 704.325989 779.75 706.142029 779.75 C 707.95697 779.75 709.392029 781.005005 709.392029 782.5 C 709.392029 783.994995 707.95697 785.25 706.142029 785.25 Z"/>
    <path id="path60" fill="#f56843" stroke="none" d="M 819.5 667.75 C 822.103027 667.75 824.25 665.870972 824.25 663.5 C 824.25 661.129028 822.103027 659.25 819.5 659.25 C 816.896973 659.25 814.75 661.129028 814.75 663.5 C 814.75 665.870972 816.896973 667.75 819.5 667.75 Z M 819.5 666.25 C 817.684021 666.25 816.25 664.994995 816.25 663.5 C 816.25 662.005005 817.684021 660.75 819.5 660.75 C 821.315979 660.75 822.75 662.005005 822.75 663.5 C 822.75 664.994995 821.315979 666.25 819.5 666.25 Z"/>
    <path id="path61" fill="#f56843" stroke="none" d="M 379.135986 472.053955 C 386.990997 479.226013 404.144989 482.421021 430.661011 481.75 C 457.122986 481.079956 475.914001 477.052979 487.058014 469.624023 C 487.402008 469.394043 487.494995 468.928955 487.265991 468.583984 C 487.036011 468.239014 486.570007 468.145996 486.226013 468.375977 C 475.368988 475.614014 456.826996 479.587036 430.622986 480.25 C 404.471985 480.911987 387.626007 477.773987 380.147003 470.946045 C 379.841003 470.666992 379.367004 470.687988 379.088013 470.994019 C 378.808014 471.299988 378.829987 471.775024 379.135986 472.053955 Z"/>
    <path id="path62" fill="#ffd1d1" fill-rule="evenodd" stroke="none" d="M 1243.27002 134.098999 C 1218.439941 142.643982 1193.119995 157.802002 1167.329956 179.572998 C 1140.719971 202.030029 1112.02002 232.859009 1081.22998 272.061035 L 1115.839966 305.478027 C 1154.170044 272.911011 1183.97998 243.153992 1205.26001 216.205994 C 1225.910034 190.072021 1240.280029 164.358032 1248.400024 139.065002 C 1248.859985 137.629028 1248.459961 136.057007 1247.380005 135.009033 C 1246.290039 133.958984 1244.699951 133.606995 1243.27002 134.098999 Z"/>
    <path id="path63" fill="#ffafaf" fill-rule="evenodd" stroke="none" d="M 1204 153 L 1230.5 177.5 C 1244.829956 151.5 1250.5 137.166016 1247.5 134.5 C 1244.5 131.833008 1230 138 1204 153 Z"/>
    <path id="path64" fill="#f56843" fill-rule="evenodd" stroke="none" d="M 1101.26001 304.89502 L 1085.5 324 L 1087 309.5 L 1074.5 312.5 L 1079.5 301.5 L 1065 301.5 L 1083.170044 287.156982 L 1078.52002 282.596985 L 1089.819946 279.771973 L 1090.180054 281.228027 L 1081.47998 283.403015 L 1105.140015 306.594971 L 1107.780029 297.785034 L 1109.219971 298.216003 L 1105.859985 309.405029 L 1101.26001 304.89502 Z"/>
    <path id="path65" fill="#f56843" stroke="none" d="M 1166.829956 178.662964 C 1140.180054 201.156006 1111.449951 232.021973 1080.630005 271.260986 C 1080.390015 271.562988 1080.420044 271.997009 1080.699951 272.264038 L 1115.300049 305.68103 C 1115.579956 305.948975 1116.01001 305.962036 1116.310059 305.713013 C 1154.680054 273.115967 1184.52002 243.325012 1205.839966 216.335022 C 1226.530029 190.132996 1240.949951 164.341003 1249.099976 138.958008 C 1249.640015 137.25 1249.170044 135.379028 1247.880005 134.132996 C 1246.589966 132.886963 1244.709961 132.469971 1243.02002 133.052979 C 1218.079956 141.630981 1192.689941 156.835999 1166.829956 178.662964 Z M 1082.22998 271.655029 C 1112.829956 232.744019 1141.359985 202.127991 1167.800049 179.809998 C 1193.52002 158.094971 1218.76001 142.984009 1243.5 134.471985 C 1244.670044 134.072021 1245.959961 134.358032 1246.839966 135.212036 C 1247.719971 136.061035 1248.040039 137.335999 1247.670044 138.499023 C 1239.579956 163.700989 1225.25 189.337036 1204.660034 215.405029 C 1183.51001 242.187988 1153.900024 271.764038 1115.849976 304.129028 L 1082.22998 271.655029 Z"/>
    <path id="path66" fill="#ffffff" fill-rule="evenodd" stroke="none" d="M 1132.689941 219 L 1128.22998 226.942017 L 1081.73999 271.757996 L 1046.949951 273.828003 L 1044 270.978027 L 1132.689941 219 Z M 1167.790039 252.606018 L 1117.369995 342.19104 L 1114.459961 339.290039 L 1115.930054 304.467041 L 1159.930054 257.204956 L 1167.790039 252.606018 Z"/>
    <path id="path67" fill="#f56843" stroke="none" d="M 1131.819946 218.708984 C 1132.47998 218.322021 1133.22998 219.057007 1132.859985 219.723999 L 1128.400024 227.664978 L 1128.26001 227.838013 L 1081.780029 272.655029 C 1081.650024 272.778992 1081.47998 272.853027 1081.300049 272.864014 L 1046.51001 274.932983 C 1046.300049 274.945007 1046.089966 274.869995 1045.939941 274.723999 L 1042.98999 271.874023 C 1042.630005 271.528992 1042.699951 270.937988 1043.130005 270.687012 L 1131.819946 218.708984 Z M 1044.73999 271.481995 L 1046.75 273.416016 L 1080.930054 271.382996 L 1127.140015 226.835022 L 1130.189941 221.403992 L 1044.73999 271.481995 Z M 1127.219971 226.757996 L 1127.089966 226.93103 L 1127.140015 226.835022 L 1127.219971 226.757996 Z M 1166.920044 252.315002 C 1167.579956 251.927979 1168.329956 252.662964 1167.949951 253.330017 L 1117.530029 342.915039 C 1117.290039 343.348022 1116.699951 343.428955 1116.349976 343.078003 L 1113.449951 340.177002 C 1113.300049 340.028015 1113.219971 339.823975 1113.22998 339.61499 L 1114.689941 304.791992 C 1114.699951 304.613037 1114.77002 304.442993 1114.890015 304.312012 L 1158.890015 257.049988 L 1159.060059 256.914001 L 1166.920044 252.315002 Z M 1159.910034 258.153015 L 1116.180054 305.131958 L 1114.73999 339.348999 L 1116.709961 341.317993 L 1165.290039 255.007996 L 1159.910034 258.153015 Z"/>
    <path id="path68" fill="#ffffff" stroke="none" d="M 1189 211 C 1197.280029 211 1204 204.283997 1204 196 C 1204 187.716003 1197.280029 181 1189 181 C 1180.719971 181 1174 187.716003 1174 196 C 1174 204.283997 1180.719971 211 1189 211 Z"/>
    <path id="path69" fill="#f56843" stroke="none" d="M 1189.199951 211.400024 C 1197.900024 211.400024 1204.949951 204.348022 1204.949951 195.650024 C 1204.949951 186.950989 1197.900024 179.900024 1189.199951 179.900024 C 1180.5 179.900024 1173.449951 186.950989 1173.449951 195.650024 C 1173.449951 204.348022 1180.5 211.400024 1189.199951 211.400024 Z M 1189.199951 209.900024 C 1181.329956 209.900024 1174.949951 203.52002 1174.949951 195.650024 C 1174.949951 187.780029 1181.329956 181.400024 1189.199951 181.400024 C 1197.069946 181.400024 1203.449951 187.780029 1203.449951 195.650024 C 1203.449951 203.52002 1197.069946 209.900024 1189.199951 209.900024 Z"/>
    <path id="path70" fill="#f56843" stroke="none" d="M 1189 203.75 C 1184.719971 203.75 1181.25 200.280029 1181.25 196 C 1181.25 191.719971 1184.719971 188.25 1189 188.25 C 1193.280029 188.25 1196.75 191.719971 1196.75 196 C 1196.75 200.280029 1193.280029 203.75 1189 203.75 Z M 1189 202.25 C 1192.449951 202.25 1195.25 199.452026 1195.25 196 C 1195.25 192.547974 1192.449951 189.75 1189 189.75 C 1185.550049 189.75 1182.75 192.547974 1182.75 196 C 1182.75 199.452026 1185.550049 202.25 1189 202.25 Z M 1203.48999 153.047974 L 1204.51001 151.952026 L 1231.23999 176.952026 L 1230.219971 178.047974 L 1203.48999 153.047974 Z"/>
    <path id="path71" fill="#f56843" stroke="none" d="M 679.599976 470.86499 C 658.924988 483.881958 644.682983 496.281006 636.874023 508.085999 C 629.072998 519.880981 622.046021 539.789001 615.768005 567.835999 L 617.231995 568.164001 C 623.473999 540.280029 630.447021 520.521973 638.125 508.914001 C 645.796997 497.31604 659.888 485.047974 680.400024 472.13501 L 679.599976 470.86499 Z"/>
    <path id="path72" fill="#ffffff" fill-rule="evenodd" stroke="none" d="M 389.890991 640.547974 C 397.951996 643.414978 405.410004 645.593994 412.265015 647.083984 C 418.971985 648.541992 426.852997 649.802002 435.907013 650.862976 C 437.826996 651.088013 439.201996 652.827026 438.97699 654.747009 C 438.959015 654.89502 438.933014 655.041992 438.897003 655.187012 L 438.799011 655.580017 C 438.303009 657.56897 436.384003 658.861023 434.354004 658.572021 C 425.936005 657.375 418.072998 656.046021 410.765015 654.583984 C 403.351013 653.101013 395.868011 650.541016 388.315002 646.903992 C 386.670013 646.112 385.807007 644.271973 386.25 642.5 C 386.623993 641.005005 388.138 640.096985 389.632996 640.469971 C 389.720001 640.492004 389.806 640.518005 389.890991 640.547974 Z"/>
    <path id="path73" fill="#f56843" stroke="none" d="M 419.52301 649.898987 C 416.960999 649.447021 414.533997 648.971008 412.242004 648.473022 C 409.447998 647.866028 406.537994 647.08197 403.510986 646.120972 L 402.429993 650.804016 C 405.457001 651.708008 408.432007 652.452026 411.354004 653.036987 C 413.674988 653.500977 416.053009 653.952026 418.487 654.388977 L 419.52301 649.898987 Z M 421.002991 650.155029 L 419.964996 654.651978 C 424.718994 655.487976 429.68399 656.273987 434.860992 657.01001 C 436.128998 657.190979 437.32901 656.382996 437.639008 655.140015 L 437.737 654.747009 C 437.756989 654.664978 437.77301 654.580994 437.78299 654.495972 C 437.911011 653.39801 437.126007 652.403992 436.028015 652.276001 C 430.604004 651.640015 425.595001 650.932983 421.002991 650.155029 Z M 402.07901 645.656982 C 398.178986 644.364014 394.089996 642.784973 389.811005 640.921021 C 389.71701 640.880005 389.618988 640.846985 389.519989 640.822021 C 388.529999 640.575989 387.528015 641.177979 387.281006 642.166992 L 387.123993 642.799011 C 386.828003 643.984985 387.433014 645.210999 388.553986 645.697021 C 392.791992 647.536987 396.938995 649.09198 400.993011 650.362976 L 402.07901 645.656982 Z M 390.410004 639.546021 C 398.493988 643.067017 405.877014 645.554993 412.559998 647.007019 C 419.268005 648.465027 427.14801 649.724976 436.203003 650.786011 C 438.122986 651.010986 439.497009 652.75 439.272003 654.671021 C 439.255005 654.81897 439.227997 654.965027 439.191986 655.109985 L 439.093994 655.502991 C 438.597992 657.492004 436.678986 658.783997 434.649994 658.494995 C 426.231995 657.297974 418.368988 655.968994 411.059998 654.507019 C 403.674011 653.030029 395.972992 650.552002 387.957001 647.072998 C 386.162994 646.294983 385.195007 644.333008 385.667999 642.435974 L 385.825989 641.804016 C 386.27301 640.010986 388.088989 638.919983 389.882996 639.367004 C 390.062988 639.411987 390.239014 639.471985 390.410004 639.546021 Z"/>
    <path id="path74" fill="#ffd1d1" fill-rule="evenodd" stroke="none" d="M 301 558.5 L 308 555.5 L 315 570 L 308 574.5 L 301 558.5 Z M 324.5 564 C 322.632996 564 320.755005 563.692017 319.5 562.5 C 318.157013 561.224976 317.5 558.999023 317.5 557 C 317.5 555.400024 318.096985 553.179016 319 552 C 320.278992 550.330017 322.234009 550 324.5 550 C 326.518005 550 328.222992 550.133972 329.5 551.5 C 330.670013 552.750977 331.5 555.151978 331.5 557 C 331.5 559.307983 330.722992 561.724976 329 563 C 327.837006 563.861023 326.058014 564 324.5 564 Z"/>
    <path id="path75" fill="#f56843" stroke="none" d="M 300.51001 558.107971 L 308.864014 554.528015 L 316.463989 570.271973 L 308.165985 575.606995 L 300.51001 558.107971 Z M 308.834991 573.393005 L 314.536011 569.728027 L 308.135986 556.471985 L 302.48999 558.892029 L 308.834991 573.393005 Z M 325 564.75 C 322.605988 564.75 320.77301 564.268005 319.484009 563.044006 C 318.054993 561.687012 317.25 559.346008 317.25 557 C 317.25 555.161987 317.932007 552.812988 318.904999 551.544006 C 320.21701 549.830017 322.074005 549.25 325 549.25 C 327.786011 549.25 329.257996 549.609009 330.548004 550.987976 C 331.829987 552.359009 332.75 554.927002 332.75 557 C 332.75 559.736023 331.769989 562.252991 329.946014 563.603027 C 328.779999 564.466003 327.214996 564.75 325 564.75 Z M 325 563.25 C 326.912994 563.25 328.222992 563.012024 329.053986 562.396973 C 330.446014 561.367004 331.25 559.301025 331.25 557 C 331.25 555.291992 330.462006 553.09198 329.451996 552.012024 C 328.528015 551.023987 327.403992 550.75 325 550.75 C 322.494995 550.75 321.05899 551.198975 320.095001 552.455994 C 319.338989 553.442993 318.75 555.471985 318.75 557 C 318.75 558.96698 319.420013 560.914978 320.515991 561.955994 C 321.467987 562.859009 322.95401 563.25 325 563.25 Z"/>
    <path id="path76" fill="#ffffff" stroke="none" d="M 693 348 L 606 348 C 604.343018 348 603 349.343018 603 351 C 603 352.656982 604.343018 354 606 354 L 693 354 C 694.656982 354 696 352.656982 696 351 C 696 349.343018 694.656982 348 693 348 Z"/>
    <path id="path77" fill="#f56843" stroke="none" d="M 606 348 L 693 348 C 694.656982 348 696 349.343018 696 351 C 696 352.656982 694.656982 354 693 354 L 606 354 C 604.343018 354 603 352.656982 603 351 C 603 349.343018 604.343018 348 606 348 Z M 606 349.5 C 605.171997 349.5 604.5 350.171997 604.5 351 C 604.5 351.828003 605.171997 352.5 606 352.5 L 693 352.5 C 693.828003 352.5 694.5 351.828003 694.5 351 C 694.5 350.171997 693.828003 349.5 693 349.5 L 606 349.5 Z"/>
    <path id="path78" fill="#ffffff" stroke="#f56843" stroke-width="1.5" stroke-linecap="round" stroke-linejoin="round" d="M 475.252991 758.737 L 435.756012 681.219971 C 435.191986 680.112 433.837006 679.671997 432.730011 680.236023 C 431.622986 680.799988 431.182007 682.155029 431.747009 683.263 L 471.243988 760.780029 C 471.808014 761.887024 473.162994 762.328003 474.269989 761.763 C 475.377014 761.198975 475.816986 759.843994 475.252991 758.737 Z"/>
    <path id="path79" fill="#ffffff" fill-rule="evenodd" stroke="none" d="M 451.117004 559.307983 C 448.268005 561.723022 434.915985 551.471008 432.059998 550.263 C 430.524994 549.612976 429.807007 547.84198 430.455994 546.307007 C 431.052002 544.900024 432.605011 544.159973 434.072998 544.583008 C 442.845001 547.116028 447.790009 548.952026 448.90799 550.093018 C 451.742004 552.984009 453.966003 556.893005 451.117004 559.307983 Z"/>
    <path id="path80" fill="#ffffff" fill-rule="evenodd" stroke="none" d="M 518.327026 627.476013 L 548.19397 608.557007 C 548.661011 608.260986 549.278992 608.400024 549.573975 608.867004 C 549.580994 608.877991 549.588013 608.890015 549.594971 608.901001 L 561.023987 628.674988 C 561.289978 629.137024 561.14801 629.72699 560.700012 630.015991 L 531.36499 648.942017 C 530.901001 649.241028 530.281982 649.107971 529.982971 648.643005 C 529.978027 648.63501 529.971985 648.627014 529.96698 648.619019 L 518.007019 628.838013 C 517.724976 628.372009 517.867981 627.767029 518.327026 627.476013 Z"/>
    <path id="path81" fill="#f56843" stroke="none" d="M 516.921997 627.778992 L 548.299988 608.171997 C 548.768005 607.879028 549.38501 608.020996 549.677979 608.48999 L 562.395996 628.843018 C 562.689026 629.310974 562.546021 629.927979 562.078003 630.221008 L 530.700012 649.828003 C 530.231995 650.120972 529.61499 649.978027 529.322021 649.51001 L 516.604004 629.156982 C 516.310974 628.687988 516.453979 628.070984 516.921997 627.778992 Z M 518.140991 628.786011 L 530.328979 648.291016 L 560.859009 629.213989 L 548.671021 609.708984 L 518.140991 628.786011 Z"/>
    <path id="path82" fill="#f56843" stroke="none" d="M 524.47998 628.085022 L 544.833008 615.367004 C 545.302002 615.073975 545.919006 615.21698 546.210999 615.684998 L 554.690002 629.254028 C 554.982971 629.721985 554.840027 630.338989 554.372009 630.632019 L 534.018982 643.349976 C 533.549988 643.642029 532.932983 643.5 532.640991 643.031982 L 524.161987 629.463013 C 523.869019 628.994019 524.012024 628.377014 524.47998 628.085022 Z M 533.64801 641.812988 L 553.153015 629.624023 L 545.203979 616.903992 L 525.698975 629.09198 L 533.64801 641.812988 Z"/>
</svg>
